<svg version="1" xmlns="http://www.w3.org/2000/svg" width="418.667" height="418.667" viewBox="0 0 314.000000 314.000000"><path d="M139 1.7C103.6 6.3 72 21.8 47 47 15.4 78.6-.8 120.1 1.3 164c5 103.7 105.4 173.3 204.7 141.8 21.5-6.8 42.6-19.6 60-36.4 38.2-37 55-89.8 45-141.6-12-62.2-59.5-110.4-122.2-124-6.9-1.4-14-2-27.8-2.3-10.2-.2-20.1-.1-22 .2zm35 10.9c16.1 1.3 40.2 9.2 55.7 18.2 24.2 14.1 45.9 37.2 58.1 61.7 18.6 37.4 20.2 81 4.4 119.6-16 39.3-48.8 69.8-89.6 83.4-15.9 5.4-26.6 6.9-46.1 6.9-25.4-.1-42.7-4.3-65.8-16.1-13.7-7-24.7-15.1-36.3-26.7-19.9-20-32.6-43-39.1-70.6-3.6-15.6-4.3-39.2-1.5-55.5C23.9 75.1 66.9 29.3 124.5 15.4c5.9-1.4 15.3-2.9 20.9-3.3 9.9-.8 13.7-.8 28.6.5z"/><path d="M137 29.7c-49.9 7.6-91.7 45.6-104.5 95.1-15.1 57.8 11.8 118.5 64.8 146.7 10.1 5.4 26.3 10.9 38.1 13 11.3 1.9 32.8 1.9 43.9 0 45.9-8 84.3-40.3 100.1-84.3 6.9-19.2 9-46 5.1-66.2-1.9-10.4-7.2-26.5-11.2-34.4-25.4-50.4-80.2-78.5-136.3-69.9zm29.5 41.8c13.1 3.5 24.3 10.5 28.1 17.7.8 1.5 1.4 5.2 1.4 8.3 0 4.9-.4 6-3.3 9.1-2.8 3.1-4.1 3.7-8.3 4.1-9.6.8-15.5-6.6-12-15.2 1.6-3.7 1.6-4-.1-5.3-5.7-4.2-27.5-6.6-38.2-4.2-19.7 4.4-28.9 19.2-19 30.4 3.9 4.5 9.8 7.2 22.7 10.2 27.4 6.4 32.9 7.9 40 11.4 8.5 4.1 15.9 11 18.8 17.6 2.7 6.1 2.5 19.5-.4 26-4.6 10.2-14.8 17.5-29.9 21.5-11.2 3.1-32.6 3.1-43.7 0-15.8-4.2-25.7-10.5-29.6-18.7-4.1-8.4-1.2-17.6 6.5-20.2 5-1.7 9.9-.6 13.4 2.9s4.3 7.4 2.5 11.8c-1.9 4.4-1 5.3 7.9 8.2 9.7 3.2 32.1 3.5 40.7.5 7.9-2.8 12.6-6.2 15-11 2.5-5.3 2.5-9.9 0-15-3.6-7.5-12.3-11.4-36.5-16.6-18.8-4-28.6-7.2-35.2-11.5-9.7-6.4-13.6-13.9-13.7-26 0-6.6.5-9 2.6-13.7 5.8-12.6 19.3-21.1 38.3-24.2 5.7-.9 26 .3 32 1.9zm2.3 33.9c.2 2.7-.1 5.3-.5 5.7-.5.5-3.6 1.4-6.8 2-9.9 1.7-9.5 1.4-9.5 7.5s1.1 5.7-9 3.4c-1.9-.4-4.7-1.1-6.2-1.4-2.2-.5-2.7-1.2-3-4.3l-.3-3.7-7.7-1.4-7.8-1.4V100l25.3.2 25.2.3.3 4.9zM146 149.5l5.5 1.1.3 18.2.2 18.3-8.7-.3-8.8-.3-.3-18.5c-.1-10.1 0-19 .3-19.7.3-.9 1.3-1.1 3.2-.6 1.6.3 5.3 1.2 8.3 1.8zm77.1 53.2c.1 1 .4 7.5.7 14.6l.7 12.7H117.9l.3-5.8.3-5.7 7.8-1.4 7.7-1.3V209h9c8.9 0 9 0 9 2.5v2.5h55.8l1.1-5c.6-2.8 1.1-5.8 1.1-6.5 0-1.2 1.5-1.5 6.5-1.5 5.5 0 6.5.3 6.6 1.7z"/></svg>